<svg xmlns="http://www.w3.org/2000/svg" xmlns:xlink="http://www.w3.org/1999/xlink" viewBox="0,0,256,256" width="480px" height="480px" fill-rule="nonzero"><g transform="translate(-33.28,-33.28) scale(1.26,1.26)"><g fill="#2196f3" fill-rule="nonzero" stroke="none" stroke-width="1" stroke-linecap="butt" stroke-linejoin="miter" stroke-miterlimit="10" stroke-dasharray="" stroke-dashoffset="0" font-family="none" font-weight="none" font-size="none" text-anchor="none" style="mix-blend-mode: normal"><g transform="scale(5.33333,5.33333)"><path d="M36,32.7l-1,6.3c0,2.2 -5.1,4 -11,4c-5.9,0 -11,-1.8 -11,-4l-1,-6.3c-0.1,-0.4 0.3,-0.8 0.8,-0.6c3,1.3 7.2,1.9 11.2,1.9c4,0 8.2,-0.6 11.2,-1.9c0.4,-0.2 0.9,0.2 0.8,0.6zM41,10c0,0.2 0,0.3 -0.1,0.5l-2.9,16.5c0,2.8 -6.2,5 -13.9,5c-7.7,0 -14.1,-2.2 -14.1,-5l-2.9,-16.5c-0.1,-0.2 -0.1,-0.3 -0.1,-0.5c0,-2.8 7.6,-5 17,-5c9.4,0 17,2.2 17,5zM29,23c0,-2.8 -2.2,-5 -5,-5c-2.8,0 -5,2.2 -5,5c0,2.8 2.2,5 5,5c2.8,0 5,-2.2 5,-5zM35.8,10c0,-1.7 -5.3,-3 -11.8,-3c-6.5,0 -11.8,1.3 -11.8,3c0,1.7 5.3,3 11.8,3c6.5,0 11.8,-1.3 11.8,-3zM24,25c1.1,0 2,-0.9 2,-2c0,-1.1 -0.9,-2 -2,-2c-1.1,0 -2,0.9 -2,2c0,1.1 0.9,2 2,2z"></path></g></g></g></svg>