<svg xmlns="http://www.w3.org/2000/svg" xmlns:xlink="http://www.w3.org/1999/xlink" viewBox="0,0,256,256" width="500px" height="500px" fill-rule="nonzero"><g transform="translate(-10.24,-10.24) scale(1.08,1.08)"><g fill="#000000" fill-rule="nonzero" stroke="none" stroke-width="1" stroke-linecap="butt" stroke-linejoin="miter" stroke-miterlimit="10" stroke-dasharray="" stroke-dashoffset="0" font-family="none" font-weight="none" font-size="none" text-anchor="none" style="mix-blend-mode: normal"><g transform="scale(5.12,5.12)"><path d="M25,2c-12.682,0 -23,10.317 -23,23c0,0.553 0.448,1 1,1h7c0.552,0 1,-0.448 1,-1c0,-7.732 6.268,-14 14,-14c7.732,0 14,6.268 14,14c0,7.732 -6.268,14 -14,14v-7c0,-0.552 -0.448,-1 -1,-1h-7c-0.552,0 -1,0.448 -1,1v7h-5v-4c0,-0.552 -0.448,-1 -1,-1h-4c-0.552,0 -1,0.448 -1,1v4c0,0.552 0.448,1 1,1h4v5c0,0.552 0.448,1 1,1h5c0.552,0 1,-0.448 1,-1v-5h7v7c0,0.553 0.448,1 1,1c12.682,0 23,-10.317 23,-23c0,-12.683 -10.318,-23 -23,-23z"></path></g></g></g></svg>