<svg xmlns="http://www.w3.org/2000/svg" xmlns:xlink="http://www.w3.org/1999/xlink" viewBox="0,0,256,256" width="240px" height="240px" fill-rule="nonzero"><defs><linearGradient x1="23.373" y1="-4.865" x2="23.373" y2="67.873" gradientUnits="userSpaceOnUse" id="color-1"><stop offset="0" stop-color="#fed100"></stop><stop offset="0.033" stop-color="#fcca00"></stop><stop offset="0.221" stop-color="#f3a400"></stop><stop offset="0.408" stop-color="#ec8601"></stop><stop offset="0.592" stop-color="#e77101"></stop><stop offset="0.771" stop-color="#e46401"></stop><stop offset="0.941" stop-color="#e36001"></stop></linearGradient></defs><g transform="translate(-24.32,-24.32) scale(1.19,1.19)"><g fill="url(#color-1)" fill-rule="nonzero" stroke="none" stroke-width="1" stroke-linecap="butt" stroke-linejoin="miter" stroke-miterlimit="10" stroke-dasharray="" stroke-dashoffset="0" font-family="none" font-weight="none" font-size="none" text-anchor="none" style="mix-blend-mode: normal"><g transform="scale(5.33333,5.33333)"><path d="M41.899,21.697c-0.072,-0.682 -0.179,-1.471 -0.395,-2.331c-0.216,-0.86 -0.574,-1.793 -1.04,-2.798c-0.502,-0.968 -1.112,-2.009 -1.937,-2.977c-0.323,-0.395 -0.682,-0.753 -1.04,-1.148c0.574,-2.26 -0.682,-4.233 -0.682,-4.233c-2.188,-0.143 -3.551,0.682 -4.053,1.04c-0.072,-0.036 -0.179,-0.072 -0.251,-0.108c-0.358,-0.142 -0.753,-0.286 -1.147,-0.429c-0.395,-0.108 -0.789,-0.251 -1.184,-0.323c-0.395,-0.108 -0.825,-0.179 -1.255,-0.251c-0.072,0 -0.143,-0.036 -0.215,-0.036c-0.933,-3.013 -3.659,-4.304 -3.659,-4.304c-3.121,2.009 -3.73,4.699 -3.73,4.699c0,0 0,0.072 -0.036,0.143c-0.179,0.036 -0.323,0.108 -0.502,0.143c-0.215,0.072 -0.466,0.143 -0.682,0.251c-0.215,0.108 -0.466,0.179 -0.682,0.287c-0.466,0.215 -0.897,0.43 -1.363,0.682c-0.43,0.251 -0.861,0.502 -1.255,0.789c-0.072,-0.036 -0.108,-0.072 -0.108,-0.072c-4.197,-1.614 -7.927,0.323 -7.927,0.323c-0.323,4.484 1.686,7.281 2.08,7.784c-0.108,0.287 -0.179,0.538 -0.287,0.825c-0.323,1.004 -0.538,2.045 -0.682,3.121c-0.036,0.143 -0.036,0.323 -0.072,0.466c-3.874,1.901 -5.022,5.847 -5.022,5.847c3.228,3.73 7.03,3.946 7.03,3.946v0c0.466,0.861 1.04,1.686 1.65,2.439c0.251,0.323 0.538,0.61 0.825,0.933c-1.184,3.372 0.179,6.205 0.179,6.205c3.623,0.143 5.99,-1.578 6.492,-1.973c0.359,0.108 0.717,0.215 1.076,0.323c1.112,0.287 2.26,0.466 3.372,0.502c0.287,0 0.574,0 0.861,0h0.143h0.108h0.179h0.179v0c1.686,2.439 4.699,2.762 4.699,2.762c2.116,-2.26 2.26,-4.448 2.26,-4.95v0c0,0 0,0 0,-0.036c0,-0.036 0,-0.072 0,-0.072v0c0,-0.036 0,-0.072 0,-0.108c0.43,-0.323 0.861,-0.646 1.291,-1.004c0.861,-0.753 1.578,-1.65 2.224,-2.583c0.072,-0.072 0.108,-0.179 0.179,-0.251c2.403,0.143 4.089,-1.506 4.089,-1.506c-0.395,-2.511 -1.829,-3.73 -2.116,-3.946v0c0,0 0,0 -0.036,-0.036l-0.036,-0.036v0l-0.036,-0.036c0,-0.143 0.036,-0.287 0.036,-0.466c0.036,-0.287 0.036,-0.538 0.036,-0.825v-0.215v-0.108v-0.036c0,-0.072 0,-0.036 0,-0.072v-0.179v-0.215c0,-0.072 0,-0.143 0,-0.215c0,-0.072 0,-0.143 -0.036,-0.215l-0.036,-0.215l-0.036,-0.215c-0.036,-0.287 -0.108,-0.538 -0.143,-0.825c-0.251,-1.076 -0.682,-2.116 -1.22,-3.013c-0.574,-0.933 -1.255,-1.722 -2.045,-2.439c-0.789,-0.682 -1.65,-1.255 -2.583,-1.65c-0.933,-0.43 -1.865,-0.682 -2.834,-0.789c-0.466,-0.072 -0.968,-0.072 -1.435,-0.072h-0.179h-0.036h-0.072h-0.072h-0.179c-0.072,0 -0.143,0 -0.179,0c-0.251,0.036 -0.502,0.072 -0.717,0.108c-0.968,0.179 -1.865,0.538 -2.654,1.004c-0.789,0.466 -1.471,1.076 -2.045,1.758c-0.574,0.682 -1.004,1.399 -1.291,2.188c-0.287,0.753 -0.466,1.578 -0.502,2.331c0,0.179 0,0.395 0,0.574c0,0.036 0,0.108 0,0.143v0.143c0,0.108 0,0.179 0.036,0.287c0.036,0.395 0.108,0.753 0.215,1.112c0.215,0.717 0.538,1.363 0.968,1.937c0.43,0.574 0.897,1.004 1.435,1.363c0.538,0.359 1.066,0.646 1.65,0.789c1.939,0.477 4.125,-0.43 4.268,-0.538c0.036,-0.036 0.108,-0.072 0.143,-0.108c0.179,-0.143 0.215,-0.395 0.072,-0.574c-0.143,-0.143 -0.359,-0.179 -0.538,-0.108c-0.314,0.16 -0.643,0.374 -1.435,0.43c-2.086,0.15 -2.905,-0.825 -3.228,-1.148c-0.359,-0.323 -0.646,-0.682 -0.897,-1.112c-0.251,-0.43 -0.395,-0.897 -0.466,-1.363c-0.036,-0.251 -0.072,-0.502 -0.036,-0.753c0,-0.072 0,-0.143 0,-0.215c0,0.036 0,0 0,0v-0.036v-0.036c0,-0.036 0,-0.072 0,-0.108c0,-0.143 0.036,-0.251 0.072,-0.395c0.179,-1.076 0.717,-2.116 1.542,-2.905c0.215,-0.215 0.43,-0.395 0.682,-0.538c0.251,-0.179 0.502,-0.323 0.753,-0.43c0.251,-0.108 0.538,-0.215 0.825,-0.287c0.287,-0.072 0.574,-0.143 0.861,-0.143c0.143,0 0.287,-0.036 0.43,-0.036c0.036,0 0.072,0 0.108,0h0.108h0.072c0.036,0 0,0 0,0h0.036h0.108c0.323,0.036 0.646,0.072 0.933,0.143c0.61,0.143 1.22,0.359 1.793,0.682c1.148,0.646 2.116,1.614 2.69,2.798c0.287,0.574 0.502,1.22 0.61,1.901c0.036,0.179 0.036,0.323 0.072,0.502v0.108v0.108c0,0.036 0,0.072 0,0.108c0,0.036 0,0.072 0,0.108v0.108v0.108c0,0.072 0,0.215 0,0.287c0,0.179 -0.036,0.359 -0.036,0.538c-0.036,0.179 -0.036,0.359 -0.072,0.538c-0.036,0.179 -0.072,0.359 -0.108,0.538c-0.072,0.359 -0.215,0.682 -0.323,1.04c-0.251,0.682 -0.61,1.327 -1.04,1.901c-0.861,1.184 -2.045,2.152 -3.372,2.762c-0.682,0.287 -1.363,0.538 -2.08,0.646c-0.359,0.072 -0.717,0.108 -1.076,0.108h-0.068h-0.072h-0.108h-0.179h-0.108c0.036,0 0,0 0,0h-0.036c-0.179,0 -0.395,0 -0.574,-0.036c-0.789,-0.072 -1.542,-0.215 -2.296,-0.43c-0.753,-0.215 -1.471,-0.502 -2.152,-0.861c-1.363,-0.717 -2.583,-1.758 -3.551,-2.941c-0.466,-0.61 -0.897,-1.255 -1.255,-1.937c-0.358,-0.682 -0.61,-1.399 -0.825,-2.116c-0.215,-0.717 -0.323,-1.471 -0.359,-2.224v-0.143v-0.036v-0.036v-0.072v-0.11v-0.036v-0.036v-0.072v-0.179v-0.036v0v-0.071c0,-0.108 0,-0.179 0,-0.287c0,-0.359 0.036,-0.753 0.108,-1.148c0.036,-0.395 0.108,-0.753 0.179,-1.148c0.071,-0.395 0.179,-0.753 0.287,-1.148c0.215,-0.753 0.466,-1.471 0.789,-2.152c0.646,-1.363 1.471,-2.583 2.439,-3.551c0.251,-0.251 0.502,-0.466 0.789,-0.682c0.108,-0.108 0.359,-0.323 0.646,-0.502c0.287,-0.179 0.574,-0.359 0.897,-0.502c0.143,-0.072 0.287,-0.143 0.466,-0.215c0.072,-0.036 0.143,-0.072 0.251,-0.108c0.072,-0.036 0.143,-0.072 0.251,-0.108c0.323,-0.143 0.646,-0.251 0.968,-0.359c0.072,-0.036 0.179,-0.036 0.251,-0.072c0.072,-0.036 0.179,-0.036 0.251,-0.072c0.179,-0.036 0.323,-0.072 0.502,-0.143c0.072,-0.036 0.179,-0.036 0.251,-0.072c0.072,0 0.179,-0.036 0.251,-0.036c0.072,0 0.179,-0.036 0.251,-0.036l0.143,-0.036l0.143,-0.036c0.072,0 0.179,-0.036 0.251,-0.036c0.108,0 0.179,-0.036 0.287,-0.036c0.072,0 0.215,-0.036 0.287,-0.036c0.072,0 0.108,0 0.179,-0.036h0.108h0.072h0.072c0.108,0 0.179,0 0.287,-0.036h0.143c0,0 0.036,0 0,0h0.036h0.072c0.072,0 0.179,0 0.251,0c0.323,0 0.646,0 0.968,0c0.646,0.036 1.291,0.108 1.901,0.215c1.22,0.215 2.403,0.61 3.443,1.148c1.04,0.502 2.009,1.148 2.798,1.829c0.036,0.036 0.108,0.072 0.143,0.143c0.036,0.036 0.108,0.072 0.143,0.143c0.108,0.072 0.179,0.179 0.287,0.251c0.108,0.072 0.179,0.179 0.287,0.251c0.072,0.108 0.179,0.179 0.251,0.287c0.359,0.359 0.682,0.753 0.968,1.112c0.574,0.753 1.04,1.506 1.399,2.224c0.036,0.036 0.036,0.072 0.072,0.143c0.036,0.036 0.036,0.072 0.072,0.143c0.036,0.072 0.072,0.179 0.143,0.251c0.036,0.072 0.072,0.179 0.108,0.251c0.036,0.072 0.072,0.179 0.108,0.251c0.143,0.323 0.251,0.646 0.359,0.968c0.179,0.502 0.287,0.933 0.395,1.291c0.036,0.143 0.179,0.251 0.323,0.251c0.179,0 0.287,-0.143 0.287,-0.323c-0.033,-0.424 -0.033,-0.891 -0.069,-1.429z"></path></g></g></g></svg>