<svg xmlns="http://www.w3.org/2000/svg" xmlns:xlink="http://www.w3.org/1999/xlink" viewBox="0,0,256,256" width="480px" height="480px" fill-rule="nonzero"><g transform="translate(-56.32,-56.32) scale(1.44,1.44)"><g fill="none" fill-rule="nonzero" stroke="none" stroke-width="1" stroke-linecap="butt" stroke-linejoin="miter" stroke-miterlimit="10" stroke-dasharray="" stroke-dashoffset="0" font-family="none" font-weight="none" font-size="none" text-anchor="none" style="mix-blend-mode: normal"><g transform="scale(5.33333,5.33333)"><path d="M6,10c0,-2.209 1.791,-4 4,-4h28c2.209,0 4,1.791 4,4v28c0,2.209 -1.791,4 -4,4h-28c-2.209,0 -4,-1.791 -4,-4z" fill="#f44336"></path><path d="M26,13h-6c-2.761,0 -5,2.239 -5,5v6h5v-5c0,-0.552 0.448,-1 1,-1h5z" fill="#ffffff"></path><path d="M22,35h6c2.761,0 5,-2.239 5,-5v-6h-5v5c0,0.552 -0.448,1 -1,1h-5z" fill="#ffffff"></path></g></g></g></svg>